<?xml version="1.0" encoding="UTF-8"?>
<svg id="Layer_2" data-name="Layer 2" xmlns="http://www.w3.org/2000/svg" viewBox="0 0 83.53 89.18">
  <defs>
    <style>
      .cls-1 {
        fill: #edcbab;
      }

      .cls-1, .cls-2, .cls-3, .cls-4, .cls-5, .cls-6, .cls-7, .cls-8 {
        fill-rule: evenodd;
      }

      .cls-1, .cls-2, .cls-3, .cls-5, .cls-7, .cls-8 {
        stroke-width: 0px;
      }

      .cls-2 {
        fill: #d78318;
      }

      .cls-3, .cls-6 {
        fill: #44403a;
      }

      .cls-4 {
        stroke: #fff;
        stroke-linecap: round;
        stroke-linejoin: round;
        stroke-width: 3px;
      }

      .cls-4, .cls-8 {
        fill: #fff;
      }

      .cls-5 {
        fill: #df9f75;
      }

      .cls-6 {
        stroke: #44403a;
        stroke-miterlimit: 22.93;
        stroke-width: .22px;
      }

      .cls-7 {
        fill: #d8d8d8;
      }
    </style>
  </defs>
  <g id="Layer_1-2" data-name="Layer 1">
    <g>
      <path class="cls-4" d="M81.58,39.8c-.32-.63-.79-1.17-1.38-1.55-.1-.06-.2-.12-.3-.18-1.18-.64-2.4-.65-3.57-.02-.89.48-1.61,1.29-2.15,2.13-.13.2-.25.4-.36.61l-1.69,3.11c-.41.76-.58,1.62-.47,2.47.06.51.23,1,.48,1.45l-5.37,9.41c-1.36-1.43-2.92-2.66-4.65-3.61.15-.4.29-.8.41-1.21h.06c1.92,0,3.74-.75,5.09-2.11,1.35-1.35,2.11-3.18,2.11-5.09s-.75-3.74-2.11-5.09c-1.35-1.35-3.18-2.11-5.09-2.11-.33,0-.65.02-.98.07v-10.92c1.86-.73,3.49-1.96,4.7-3.56,1.43-1.89,2.2-4.17,2.2-6.54,0-2.89-1.14-5.63-3.18-7.67-2.04-2.04-4.78-3.18-7.67-3.18-1.24,0-2.46.21-3.62.62-.61.22-1.2.49-1.76.81-1.03-1.64-2.42-3.03-4.05-4.08-2.13-1.36-4.59-2.08-7.11-2.08s-4.98.72-7.11,2.08c-1.63,1.05-3.02,2.44-4.05,4.08-.56-.32-1.15-.59-1.76-.81-1.16-.41-2.39-.62-3.62-.62-2.89,0-5.63,1.14-7.67,3.18-2.04,2.04-3.18,4.78-3.18,7.67,0,2.42.8,4.75,2.29,6.66,1.2,1.54,2.8,2.73,4.61,3.44v10.92c-.32-.04-.65-.07-.98-.07-1.91,0-3.74.76-5.09,2.11-1.29,1.29-2.03,2.99-2.1,4.8-.08-.35-.22-.69-.39-1.01l-3.28-6.05c-.39-.72-1.29-.99-2.01-.6-.72.39-.99,1.29-.6,2.01l3.28,6.05c.12.21.18.46.14.7-.02.19-.1.38-.24.51-.06.06-.13.11-.2.16l-.05.03c-.16.08-.33.1-.5.07-.3-.06-.58-.28-.79-.49l-.08-.08c-.13-.15-.24-.31-.34-.48l-3.11-5.23c-.42-.7-1.34-.93-2.04-.51-.7.42-.93,1.33-.51,2.03l3.11,5.23c.15.25.32.5.5.73l-.02.02.34.36c.64.67,1.44,1.16,2.35,1.35.56.11,1.12.1,1.66-.04l4.9,8.58c-1.61,1.92-2.87,4.14-3.7,6.48-.97,2.72-1.37,5.66-1.02,8.53.23,1.91.79,3.76,1.68,5.47,2.38,4.54,6.77,7.18,11.66,8.3,2.76.63,5.64.79,8.46.58,3.08-.22,6.13-.87,9.05-1.86.16-.05.32-.11.48-.17.1.07.22.12.34.17,2.92.99,5.98,1.64,9.05,1.86,2.82.2,5.7.05,8.46-.58,4.89-1.13,9.28-3.77,11.66-8.3.89-1.71,1.45-3.55,1.68-5.47.35-2.87-.06-5.81-1.02-8.53-.63-1.76-1.5-3.45-2.58-5l5.74-10.06c.54.14,1.1.15,1.66.04.91-.18,1.71-.68,2.35-1.35.32-.33.59-.7.83-1.1l1.44-2.42c.07-.11.13-.22.2-.33.53-.84,1-1.65,1.03-2.68.02-.7-.13-1.4-.45-2.02ZM12.52,46.39s0-.01,0-.02c.24,1.49.94,2.86,2.02,3.94,1.35,1.35,3.18,2.11,5.09,2.11h.06c.12.41.26.82.41,1.21-1.21.67-2.34,1.47-3.38,2.39l-4.67-8.19c.25-.44.41-.94.48-1.45Z"/>
      <g>
        <path class="cls-3" d="M72.13,47.84c-.25-.44-.41-.94-.48-1.45-.11-.86.06-1.71.47-2.47l1.68-3.11c.11-.21.23-.41.36-.61.54-.85,1.26-1.65,2.15-2.13,1.17-.63,2.39-.62,3.57.02.1.06.2.12.3.18.59.38,1.07.92,1.38,1.55.31.62.47,1.33.45,2.02-.04,1.03-.5,1.83-1.03,2.68-.07.11-.14.22-.2.33l-1.44,2.42c-.23.39-.51.77-.83,1.1-.64.67-1.44,1.16-2.35,1.35-.56.11-1.12.1-1.66-.04l-5.74,10.06c1.08,1.55,1.95,3.24,2.58,5,.97,2.72,1.37,5.66,1.02,8.53-.23,1.91-.79,3.76-1.68,5.47-2.38,4.54-6.77,7.18-11.66,8.3-2.76.63-5.64.79-8.46.58-3.08-.22-6.13-.87-9.05-1.86-.12-.04-.24-.1-.34-.17-.16.06-.32.11-.48.17-2.92.99-5.98,1.64-9.05,1.86-2.82.2-5.7.05-8.46-.58-4.89-1.13-9.28-3.77-11.66-8.3-.89-1.71-1.45-3.55-1.68-5.47-.35-2.87.06-5.81,1.02-8.53.83-2.34,2.1-4.56,3.7-6.48l-4.9-8.58c-.54.14-1.1.15-1.66.04-.91-.18-1.71-.68-2.35-1.35l-.34-.36.02-.02c-.19-.23-.35-.47-.5-.73l-3.11-5.23c-.42-.7-.19-1.62.51-2.03.7-.42,1.62-.19,2.04.51l3.11,5.23c.1.17.21.33.34.48l.08.08c.21.22.49.43.79.49.17.04.34.01.5-.07l.05-.03c.07-.04.14-.1.2-.16.14-.13.22-.32.24-.51.03-.24-.03-.49-.14-.7l-3.28-6.05c-.39-.72-.12-1.62.6-2.01.72-.39,1.62-.12,2.01.6l3.28,6.05c.17.32.31.66.39,1.01.07-1.81.82-3.52,2.1-4.8,1.35-1.35,3.18-2.11,5.09-2.11.33,0,.65.02.98.07v-10.92c-1.81-.71-3.4-1.9-4.61-3.44-1.49-1.91-2.29-4.24-2.29-6.66,0-2.89,1.14-5.63,3.18-7.67,2.04-2.04,4.78-3.18,7.67-3.18,1.24,0,2.46.21,3.62.62.61.22,1.2.49,1.76.81,1.04-1.64,2.42-3.03,4.05-4.08,2.13-1.36,4.59-2.08,7.11-2.08s4.98.72,7.11,2.08c1.63,1.05,3.02,2.44,4.05,4.08.56-.32,1.15-.59,1.76-.81,1.16-.41,2.39-.62,3.62-.62,2.89,0,5.63,1.14,7.67,3.18,2.04,2.04,3.18,4.78,3.18,7.67,0,2.37-.77,4.65-2.2,6.54-1.21,1.6-2.84,2.83-4.7,3.56v10.92c.32-.04.65-.07.98-.07,1.92,0,3.74.76,5.09,2.11,1.35,1.35,2.11,3.18,2.11,5.09s-.75,3.74-2.11,5.09c-1.35,1.35-3.18,2.11-5.09,2.11h-.06c-.12.41-.26.82-.41,1.21,1.72.95,3.29,2.18,4.65,3.61l5.37-9.41h0ZM12.04,47.84l4.67,8.19c1.04-.92,2.17-1.72,3.38-2.39-.15-.4-.29-.8-.41-1.21h-.06c-1.91,0-3.74-.75-5.09-2.11-1.08-1.08-1.78-2.46-2.02-3.94,0,0,0,.01,0,.02-.06.51-.23,1-.48,1.45Z"/>
        <path class="cls-3" d="M19.63,40.5c-1.3,0-2.48.53-3.34,1.38s-1.38,2.03-1.38,3.34.53,2.48,1.38,3.34,2.03,1.38,3.34,1.38,2.48-.53,3.34-1.38c.85-.85,1.38-2.03,1.38-3.34s-.53-2.48-1.38-3.34c-.85-.85-2.03-1.38-3.34-1.38h0ZM14.89,40.48c1.21-1.21,2.89-1.96,4.74-1.96s3.53.75,4.74,1.96c1.21,1.21,1.96,2.89,1.96,4.74s-.75,3.53-1.96,4.74c-1.21,1.21-2.89,1.96-4.74,1.96s-3.53-.75-4.74-1.96c-1.21-1.21-1.96-2.89-1.96-4.74s.75-3.53,1.96-4.74Z"/>
        <path class="cls-6" d="M62.57,40.5c-1.3,0-2.48.53-3.34,1.38-.85.85-1.38,2.03-1.38,3.34s.53,2.48,1.38,3.34c.85.85,2.03,1.38,3.34,1.38s2.48-.53,3.34-1.38c.85-.85,1.38-2.03,1.38-3.34s-.53-2.48-1.38-3.34c-.85-.85-2.03-1.38-3.34-1.38h0ZM57.83,40.48c1.21-1.21,2.89-1.96,4.74-1.96s3.53.75,4.74,1.96c1.21,1.21,1.96,2.89,1.96,4.74s-.75,3.53-1.96,4.74c-1.21,1.21-2.89,1.96-4.74,1.96s-3.53-.75-4.74-1.96c-1.21-1.21-1.96-2.89-1.96-4.74s.75-3.53,1.96-4.74Z"/>
        <path class="cls-6" d="M23.08,39.17c0,.55-.44.99-.99.99s-.99-.44-.99-.99v-12.8c0-.55.44-.99.99-.99s.99.44.99.99v12.8h0ZM59.12,26.36c0-.55.44-.99.99-.99s.99.44.99.99v12.8c0,.55-.44.99-.99.99s-.99-.44-.99-.99v-12.8Z"/>
        <path class="cls-3" d="M29.06,26.39c-.49.24-1.08.03-1.32-.46-.24-.49-.03-1.08.46-1.32.65-.31,1.25-.71,1.79-1.18.55-.47,1.03-1.01,1.44-1.6.31-.45.93-.56,1.38-.25.07.05.14.11.19.17,1,1.15,2.25,2.09,3.65,2.73,1.35.62,2.85.96,4.45.96s3.1-.34,4.45-.96c1.41-.64,2.65-1.58,3.66-2.73.36-.41.98-.46,1.39-.1.07.06.13.13.18.21.4.57.87,1.09,1.4,1.55.53.46,1.11.85,1.75,1.17.49.24.69.84.45,1.33-.24.49-.84.69-1.33.45-.78-.39-1.51-.87-2.17-1.45-.36-.31-.69-.64-1-1-1.02.98-2.21,1.78-3.51,2.38-1.61.73-3.4,1.14-5.27,1.14s-3.66-.41-5.27-1.14c-1.3-.59-2.49-1.4-3.51-2.38-.32.37-.67.71-1.04,1.03-.67.57-1.42,1.07-2.22,1.46h0ZM60.45,27.04c2.2-.62,4.11-1.95,5.46-3.72,1.31-1.74,2.1-3.9,2.1-6.24,0-2.86-1.16-5.44-3.03-7.32s-4.46-3.03-7.32-3.03c-1.21,0-2.37.21-3.46.59-.74.26-1.44.61-2.09,1.02-1.02-1.76-2.45-3.25-4.15-4.34-1.98-1.27-4.33-2-6.85-2s-4.87.73-6.85,2c-1.71,1.09-3.13,2.58-4.15,4.34-.65-.42-1.35-.76-2.09-1.02-1.08-.38-2.25-.59-3.46-.59-2.86,0-5.44,1.16-7.32,3.03s-3.03,4.46-3.03,7.32c0,2.39.82,4.6,2.18,6.35,1.4,1.79,3.37,3.11,5.64,3.68.53.13,1.07-.19,1.2-.72.13-.53-.19-1.07-.72-1.2-1.84-.46-3.43-1.53-4.56-2.98-1.1-1.41-1.76-3.2-1.76-5.14,0-2.31.94-4.4,2.45-5.92,1.51-1.51,3.6-2.45,5.92-2.45.99,0,1.93.17,2.8.48.89.32,1.71.78,2.44,1.36.07.06.15.12.25.16.5.23,1.08.01,1.31-.48.86-1.87,2.25-3.46,3.97-4.56,1.66-1.07,3.65-1.68,5.78-1.68s4.11.62,5.78,1.68c1.72,1.1,3.11,2.69,3.97,4.56h0c.03.07.08.14.13.21.34.42.97.49,1.39.14.73-.59,1.57-1.07,2.47-1.39.87-.31,1.81-.48,2.8-.48,2.31,0,4.4.94,5.92,2.45s2.45,3.61,2.45,5.92c0,1.9-.63,3.65-1.69,5.05-1.09,1.44-2.63,2.51-4.41,3.01-.53.15-.83.69-.69,1.22.15.53.69.83,1.22.69Z"/>
        <path class="cls-8" d="M41.1,65.17c11.34,0,20.59-7.79,20.59-17.34s-9.25-17.34-20.59-17.34-20.59,7.79-20.59,17.34,9.25,17.34,20.59,17.34Z"/>
        <path class="cls-3" d="M41.1,31.49c-5.45,0-10.37,1.85-13.92,4.84-3.51,2.95-5.67,7.02-5.67,11.5s2.17,8.55,5.67,11.5c3.55,2.99,8.47,4.84,13.92,4.84s10.37-1.85,13.92-4.84c3.51-2.95,5.67-7.02,5.67-11.5s-2.17-8.55-5.67-11.5c-3.55-2.99-8.47-4.84-13.92-4.84h0ZM25.91,34.82c3.9-3.28,9.27-5.31,15.19-5.31s11.29,2.03,15.19,5.31c3.95,3.32,6.39,7.92,6.39,13.01s-2.44,9.69-6.39,13.01c-3.9,3.28-9.27,5.31-15.19,5.31s-11.29-2.03-15.19-5.31c-3.95-3.32-6.39-7.92-6.39-13.01s2.44-9.69,6.39-13.01Z"/>
        <path class="cls-3" d="M22.08,44.69c-.27,0-.49-.23-.49-.5,0-.43.17-.63.52-.63.41,0,.53.43.75,1.15.55,1.85,1.92,6.48,4.36,7.91,4.78,2.8,7.62-.72,9.14-3.3.29-.5.55-.98.76-1.38.1-.2.1-.2.15-.29.13-.24.43-.33.67-.2.24.13.33.43.21.67l-.15.29c-.21.39-.46.88-.78,1.42-1.72,2.92-4.95,6.9-10.49,3.65-2.78-1.63-4.23-6.53-4.81-8.49-.04-.13.07-.23.17-.3Z"/>
        <path class="cls-3" d="M40.18,50.93h0s0-.02,0-.02h0s0-.02,0-.02v-.02s0,0,0,0c.05-.1.11-.19.18-.27h0s.02-.02.02-.02h0s.02-.02.02-.02h0c.08-.08.17-.14.27-.18h0s.02,0,.02,0h.01s0,0,0,0h.02s0,0,0,0h0s.02,0,.02,0h0s.01,0,.01,0h.01s0,0,0,0h.02s.02-.01.02-.01h.02s0,0,0,0h.02s0,0,0,0h.02s0,0,0,0h.02s.02,0,.02,0h0s.02,0,.02,0h0s.01,0,.01,0h.01s.01,0,.01,0h.01s.02,0,.02,0h0s.01,0,.01,0h.01s0,0,0,0h.03s.01,0,.01,0h0s.02,0,.02,0h.01s.01,0,.01,0h.01s.01,0,.01,0h0s.02,0,.02,0h0s.02,0,.02,0h0s.02,0,.02,0h.02s0,0,0,0h.02s0,0,0,0h.02s.02.01.02.01h.02s0,0,0,0h.01s.01,0,.01,0h0s.02,0,.02,0h0s0,0,0,0h.02s0,0,0,0h.01s.02.01.02.01h0c.1.05.19.11.27.19h0s.02.02.02.02h0s.01.02.01.02h0c.07.08.14.17.18.27h0s0,.02,0,.02h0s0,.02,0,.02v.02s0,0,0,0h0s0,0,0,0c.11.29,3.37,8.79,11.64,6.77,6.9-1.69,6.08-8.08,5.63-11.59-.1-.79-.19-1.45-.19-1.93,0-.55.44-.99.99-.99s.99.44.99.99c0,.41.07.99.16,1.68.53,4.13,1.5,11.65-7.13,13.76-4.41,1.08-7.62-.29-9.84-2.19-.83.79-1.95,1.28-3.19,1.28s-2.36-.49-3.19-1.28c-2.23,1.9-5.44,3.27-9.84,2.19-8.62-2.11-7.66-9.63-7.13-13.76.09-.69.16-1.27.16-1.68,0-.55.44-.99.99-.99s.99.44.99.99c0,.48-.08,1.14-.19,1.93-.45,3.51-1.27,9.9,5.63,11.59,8.27,2.02,11.53-6.48,11.64-6.77h0s0,0,0,0Z"/>
        <path class="cls-3" d="M21.14,44.19c-.16-.52.13-1.08.65-1.24.52-.16,1.08.13,1.24.65.2.63.42,1.2.65,1.7.7,1.51,1.53,2.45,2.38,2.92.76.43,1.56.48,2.29.25.14-.04.27-.09.4-.15,1.22-.57,2.09-1.68,2.93-2.76,2.02-2.6,3.94-5.06,9.81-2.58.5.21.74.79.53,1.29s-.79.74-1.29.53c-4.47-1.89-5.93-.01-7.48,1.97-.99,1.27-2,2.57-3.67,3.34-.21.1-.42.18-.64.25-1.23.38-2.57.3-3.84-.41-1.19-.67-2.31-1.89-3.2-3.82-.27-.58-.52-1.23-.74-1.94Z"/>
        <path class="cls-3" d="M60.61,44.19c0,.27-.22.49-.49.5.1.07.21.18.17.3-.58,1.95-2.03,6.85-4.81,8.49-5.54,3.25-8.77-.73-10.49-3.65-.32-.54-.57-1.03-.78-1.42v-.03s0,.02-.15-.26c-.13-.24-.04-.54.2-.67.24-.13.54-.04.67.2.09.18.01.02.14.27v.03c.22.4.48.88.77,1.38,1.52,2.58,4.36,6.11,9.14,3.3,2.44-1.43,3.81-6.07,4.36-7.91.21-.72.34-1.15.75-1.15.35,0,.52.2.52.63Z"/>
        <path class="cls-3" d="M59.17,43.6c.16-.52.72-.81,1.24-.65.52.16.81.72.65,1.24-.22.71-.47,1.36-.74,1.94-.89,1.93-2.01,3.15-3.2,3.82-1.28.72-2.61.8-3.84.41-.22-.07-.43-.15-.64-.25-1.67-.77-2.68-2.07-3.67-3.34-1.54-1.99-3.01-3.87-7.48-1.97-.5.21-1.08-.02-1.29-.53-.21-.5.02-1.08.53-1.29,5.87-2.49,7.79-.02,9.81,2.58.84,1.08,1.71,2.19,2.93,2.76.13.06.26.11.4.15.73.23,1.52.18,2.29-.25.85-.48,1.68-1.41,2.38-2.92.23-.5.45-1.07.65-1.7Z"/>
        <path class="cls-3" d="M33.47,40.5c1.03,0,1.87-.84,1.87-1.87s-.84-1.87-1.87-1.87-1.87.84-1.87,1.87.84,1.87,1.87,1.87Z"/>
        <path class="cls-3" d="M49.92,40.5c1.03,0,1.87-.84,1.87-1.87s-.84-1.87-1.87-1.87-1.87.84-1.87,1.87.84,1.87,1.87,1.87Z"/>
        <path class="cls-3" d="M20.65,53.9c.48-.25,1.08-.07,1.33.42.25.48.07,1.08-.42,1.33-3.89,2.04-6.89,5.74-8.37,9.89-1.41,3.96-1.42,8.33.51,12.02,1.92,3.66,5.56,6.01,10.03,7.04,4.8,1.11,10.54.7,16.16-1.21,9.41-3.19,15.3-8.98,16.87-10.66l-2.77-5.87c-3.34.31-18.13,1.76-26.65,3.79-.36.09-1.7.34-3.2.64-2.11.41-4.54.88-4.92.99-.52.16-1.07-.13-1.24-.65-.16-.52.13-1.08.65-1.24.5-.15,2.98-.63,5.13-1.05,1.45-.28,2.74-.53,3.12-.62,9.39-2.24,26.38-3.78,27.55-3.88.42-.07.85.15,1.04.56l3.35,7.09c.16.34.12.76-.14,1.07-.02.02-6.58,7.79-18.16,11.72-5.97,2.03-12.09,2.45-17.24,1.27-5.01-1.15-9.12-3.83-11.33-8.05-2.21-4.22-2.21-9.15-.63-13.6,1.64-4.6,4.98-8.7,9.32-10.98Z"/>
        <path class="cls-3" d="M60.64,55.65c-.48-.25-.67-.85-.42-1.33.25-.48.85-.67,1.33-.42,4.34,2.28,7.69,6.38,9.32,10.98,1.58,4.45,1.58,9.38-.63,13.6-2.21,4.22-6.32,6.9-11.33,8.05-5.15,1.19-11.27.76-17.24-1.27-.52-.18-.8-.74-.62-1.25.18-.52.74-.8,1.26-.62,5.63,1.91,11.36,2.32,16.16,1.21,4.47-1.03,8.1-3.37,10.02-7.04,1.94-3.7,1.93-8.06.51-12.02-1.48-4.15-4.48-7.85-8.37-9.89h0ZM26.5,70.46l1.71-3.62c1.68.12,6.36.51,12.35,1.32.54.07,1.04-.31,1.11-.85.07-.54-.31-1.04-.85-1.11-7.63-1.03-13.14-1.38-13.16-1.38-.39-.02-.78.19-.96.57l-2,4.23c-.23.49-.02,1.08.47,1.32.49.23,1.08.02,1.32-.47Z"/>
        <path class="cls-3" d="M55.61,66.63c-.51.21-1.08-.04-1.29-.55-.21-.51.04-1.08.55-1.29l6.56-2.66s.05-.02.07-.03l3.98-1.42c.52-.18,1.08.09,1.26.6.18.52-.09,1.08-.6,1.26l-3.98,1.42-6.55,2.66h0ZM63.01,66.35c1.12.85,1.75,1.82,1.95,2.76.12.59.07,1.17-.16,1.68-.23.52-.65.99-1.24,1.35-1.06.65-2.65.96-4.74.66-.54-.07-1.04.3-1.12.84s.3,1.04.84,1.12c2.58.36,4.63-.06,6.05-.94.94-.58,1.61-1.35,2-2.23.4-.89.5-1.89.29-2.89-.29-1.38-1.17-2.77-2.69-3.93-.43-.33-1.05-.24-1.38.19s-.24,1.05.19,1.38Z"/>
        <path class="cls-3" d="M9.42,48.23c-.27-.48-.1-1.08.37-1.35.48-.27,1.08-.1,1.35.37l10.23,17.92c.27.47.1,1.08-.37,1.35-.47.27-1.08.1-1.35-.37l-10.23-17.92Z"/>
        <path class="cls-3" d="M29.41,64.79c.51.21.75.78.55,1.29-.21.51-.78.75-1.29.55-.16-.07-.52-.22-.97-.4-2.38-1-7.66-3.21-8.3-3.09-.54.1-1.05-.26-1.15-.79-.1-.54.26-1.05.79-1.15,1.22-.23,6.87,2.14,9.42,3.21.39.16.7.29.95.4h0ZM20.07,64.78c-1.36,1.03-2,2.14-2.16,3.27-.16,1.13.17,2.21.77,3.21.28.47.89.62,1.36.34.47-.28.62-.89.34-1.36-.38-.63-.6-1.29-.51-1.91.09-.63.5-1.29,1.4-1.97.43-.33.52-.95.19-1.38-.33-.43-.95-.52-1.38-.19Z"/>
        <path class="cls-3" d="M2.13,41.77c-.28-.47-.13-1.07.34-1.36.47-.28,1.08-.13,1.36.34l3.11,5.23c.15.26.32.48.49.65h0c.34.35.7.57,1.05.64.31.06.62.01.9-.15h0c.1-.06.2-.14.29-.22.21-.2.35-.49.39-.81.04-.31-.02-.66-.2-1l-3.28-6.05c-.26-.48-.08-1.08.4-1.34.48-.26,1.08-.08,1.34.4l3.28,6.05c.39.72.51,1.48.42,2.18-.1.78-.45,1.49-.98,1.99-.2.19-.42.36-.65.49h0s0,0,0,0c-.71.42-1.51.55-2.3.39-.75-.15-1.47-.56-2.09-1.2h0s0,0,0,0c-.28-.29-.54-.63-.76-1l-3.11-5.23Z"/>
        <path class="cls-3" d="M73.03,47.26c.27-.48.87-.64,1.35-.37.48.27.64.87.37,1.35l-10.23,17.92c-.27.48-.87.64-1.35.37-.48-.27-.64-.87-.37-1.35l10.23-17.92Z"/>
        <path class="cls-3" d="M80.37,44.58l-1.44,2.42c-.23.38-.49.72-.76,1.01-.62.65-1.34,1.05-2.09,1.2-.79.16-1.59.03-2.3-.39-.22-.13-.44-.3-.64-.49h0s0,0,0,0c-.53-.5-.88-1.21-.98-1.99-.09-.7.03-1.46.42-2.18l1.69-3.11c.1-.19.22-.39.34-.58.5-.79,1.17-1.53,1.97-1.97.92-.5,1.96-.6,3.1.02.09.05.18.1.27.16.53.34.93.81,1.21,1.35.28.55.42,1.17.39,1.78-.03.95-.52,1.73-.96,2.43-.09.15-.18.29-.21.33h0ZM77.23,45.99l1.44-2.42c.11-.19.17-.27.22-.37.31-.49.65-1.04.66-1.45,0-.28-.05-.57-.19-.83-.12-.23-.29-.44-.51-.58-.05-.03-.09-.06-.14-.08-.46-.25-.87-.21-1.23-.02-.47.25-.89.75-1.24,1.29-.09.15-.18.3-.26.45l-1.68,3.11c-.18.34-.24.69-.2,1,.04.32.18.61.39.81h0c.09.09.19.16.29.22.28.17.59.22.9.15.35-.07.72-.29,1.05-.64.17-.18.34-.4.49-.65Z"/>
        <path class="cls-3" d="M17.55,44.49c-.06.27-.33.43-.6.36-.27-.06-.43-.33-.36-.6.21-.87.79-1.47,1.47-1.75.37-.15.76-.21,1.15-.17.4.04.78.18,1.12.43.61.45,1.07,1.25,1.11,2.43,0,.27-.21.5-.48.51-.27,0-.5-.21-.51-.48-.03-.84-.32-1.38-.71-1.67-.19-.14-.41-.22-.64-.24-.23-.02-.46.01-.68.1-.41.17-.76.54-.89,1.07Z"/>
        <path class="cls-3" d="M65.61,44.26c.06.27-.1.53-.36.6-.27.06-.53-.1-.6-.36-.13-.53-.48-.9-.89-1.07-.22-.09-.45-.12-.68-.1-.22.02-.44.1-.63.24-.39.29-.68.83-.71,1.67,0,.27-.24.49-.51.48-.27,0-.49-.24-.48-.51.04-1.18.49-1.98,1.11-2.43.34-.25.73-.39,1.12-.43.39-.04.79.02,1.15.17.69.28,1.26.88,1.47,1.75Z"/>
        <path class="cls-3" d="M51.62,66.88c-.11-.25,0-.54.24-.65s.54,0,.65.24l4.09,8.92c.11.25,0,.54-.24.65-.25.11-.54,0-.65-.24l-4.09-8.92Z"/>
        <path class="cls-8" d="M46.88,5.66c-1.66-1.07-3.65-1.68-5.78-1.68s-4.11.62-5.78,1.68c-1.72,1.1-3.11,2.69-3.97,4.56-.23.5-.82.71-1.31.48-.09-.04-.18-.1-.25-.16-.72-.58-1.54-1.04-2.44-1.36-.87-.31-1.81-.48-2.8-.48-2.31,0-4.4.94-5.92,2.45-1.51,1.51-2.45,3.61-2.45,5.92,0,1.94.66,3.72,1.76,5.14,1.13,1.45,2.72,2.52,4.56,2.98.53.13.85.67.72,1.2-.03.12-.08.22-.14.32v11.04c.82-1.06,1.77-2.04,2.83-2.93,3.9-3.28,9.27-5.31,15.19-5.31s11.29,2.03,15.19,5.31c1.06.89,2,1.87,2.83,2.93v-11.39c0-.13.03-.26.08-.38.04-.39.31-.74.72-.85,1.78-.5,3.32-1.57,4.41-3.01,1.06-1.4,1.69-3.15,1.69-5.05,0-2.31-.94-4.4-2.45-5.92s-3.61-2.45-5.92-2.45c-.99,0-1.93.17-2.8.48-.91.32-1.74.8-2.47,1.39-.42.34-1.05.28-1.39-.14-.05-.07-.1-.14-.13-.21h0c-.86-1.87-2.25-3.45-3.97-4.56h0ZM33,21.75c1,1.15,2.25,2.09,3.65,2.73,1.35.62,2.85.96,4.45.96s3.1-.34,4.45-.96c1.41-.64,2.65-1.58,3.66-2.73.36-.41.98-.46,1.39-.1.07.06.13.13.18.21.4.57.87,1.09,1.4,1.55.53.46,1.11.85,1.75,1.17.49.24.69.84.45,1.33-.24.49-.84.69-1.33.45-.78-.39-1.51-.87-2.17-1.45-.36-.31-.69-.64-1-1-1.02.98-2.21,1.78-3.51,2.38-1.61.73-3.4,1.14-5.27,1.14s-3.66-.41-5.27-1.14c-1.3-.59-2.49-1.4-3.51-2.38-.32.37-.67.71-1.04,1.03-.67.57-1.42,1.07-2.22,1.46-.49.24-1.08.03-1.32-.46-.24-.49-.03-1.08.46-1.32.65-.31,1.25-.71,1.79-1.18.55-.47,1.03-1.01,1.44-1.6.31-.45.93-.56,1.38-.25.07.05.14.11.19.17Z"/>
        <path class="cls-7" d="M16.25,16.06c-.04.33-.06.67-.06,1.02,0,1.94.66,3.72,1.76,5.14,1.13,1.45,2.72,2.52,4.56,2.98.53.13.85.67.72,1.2-.03.12-.08.22-.14.32v11.04c.82-1.06,1.77-2.04,2.83-2.93,3.9-3.28,9.27-5.31,15.19-5.31s11.29,2.03,15.19,5.31c1.06.89,2,1.87,2.83,2.93v-11.39c0-.13.03-.26.08-.38.04-.39.31-.74.72-.85,1.78-.5,3.32-1.57,4.41-3.01,1.06-1.4,1.69-3.15,1.69-5.05,0-.34-.02-.68-.06-1.02-1.05,2.27-3.6,3.82-5.66,4.37-3.66.98-10.15-2.72-10.15-2.72-3.72,4.93-14.36,4.93-18.08,0,0,0-6.49,3.7-10.15,2.72-2.06-.55-4.61-2.11-5.66-4.37h0ZM33,21.75c1,1.15,2.25,2.09,3.65,2.73,1.35.62,2.85.96,4.45.96s3.1-.34,4.45-.96c1.41-.64,2.65-1.58,3.66-2.73.36-.41.98-.46,1.39-.1.07.06.13.13.18.21.4.57.87,1.09,1.4,1.55.53.46,1.11.85,1.75,1.17.49.24.69.84.45,1.33-.24.49-.84.69-1.33.45-.78-.39-1.51-.87-2.17-1.45-.36-.31-.69-.64-1-1-1.02.98-2.21,1.78-3.51,2.38-1.61.73-3.4,1.14-5.27,1.14s-3.66-.41-5.27-1.14c-1.3-.59-2.49-1.4-3.51-2.38-.32.37-.67.71-1.04,1.03-.67.57-1.42,1.07-2.22,1.46-.49.24-1.08.03-1.32-.46-.24-.49-.03-1.08.46-1.32.65-.31,1.25-.71,1.79-1.18.55-.47,1.03-1.01,1.44-1.6.31-.45.93-.56,1.38-.25.07.05.14.11.19.17Z"/>
        <path class="cls-1" d="M41.1,31.49c-5.45,0-10.37,1.85-13.92,4.84-1.3,1.09-2.41,2.34-3.3,3.7-.37.57-.7,1.16-.99,1.77-.18.38-.34.76-.49,1.15.29.1.54.33.64.65.2.63.42,1.2.65,1.7.17.37.35.71.54,1.02.47.77.98,1.32,1.5,1.7.11.08.22.15.33.21.76.43,1.56.48,2.29.25.14-.04.27-.09.4-.15,1.22-.57,2.09-1.68,2.93-2.76,1.98-2.54,3.86-4.96,9.43-2.74,5.57-2.22,7.45.19,9.43,2.74.84,1.08,1.71,2.19,2.93,2.76.13.06.26.11.4.15.73.23,1.52.18,2.29-.25.11-.06.22-.13.33-.21.52-.37,1.03-.93,1.5-1.7.19-.31.37-.64.54-1.02.23-.5.45-1.07.65-1.7.1-.32.34-.55.64-.65-.15-.39-.31-.77-.49-1.15-.29-.61-.62-1.2-.99-1.77-.89-1.36-2-2.61-3.3-3.7-3.55-2.99-8.47-4.84-13.92-4.84h0ZM33.47,36.75c1.03,0,1.87.84,1.87,1.87s-.84,1.87-1.87,1.87-1.87-.84-1.87-1.87.84-1.87,1.87-1.87h0ZM48.04,38.63c0-1.03.84-1.87,1.87-1.87s1.87.84,1.87,1.87-.84,1.87-1.87,1.87-1.87-.84-1.87-1.87Z"/>
        <path class="cls-2" d="M41.48,44.8c-.12.05-.26.08-.38.08s-.26-.02-.38-.08c-4.47-1.89-5.93-.01-7.48,1.97-.99,1.27-2,2.57-3.67,3.34-.21.1-.42.18-.64.25-1.23.38-2.57.3-3.84-.41-.1-.06-.19-.11-.29-.18.65,1.21,1.45,2.28,2.42,2.85,4.78,2.8,7.62-.72,9.14-3.3.29-.5.55-.98.76-1.38.1-.2.1-.2.15-.29.13-.24.43-.33.67-.2.24.13.33.43.21.67l-.15.29c-.21.39-.46.88-.78,1.42-1.72,2.92-4.95,6.9-10.49,3.65-1.12-.66-2.02-1.84-2.74-3.15-.34-.62-.63-1.26-.89-1.89-.08-.21-.17-.41-.24-.62-.04-.06-.08-.12-.13-.19-.04.4-.07.81-.09,1.24-.03.75-.03,1.54.07,2.32.32,2.78,1.68,5.5,5.84,6.52,8.27,2.02,11.53-6.48,11.64-6.77h0s0,0,0,0h0s0-.02,0-.02h0s0-.02,0-.02v-.02s0,0,0,0c.05-.1.11-.19.18-.27h0s.02-.02.02-.02h0s.02-.02.02-.02h0c.08-.08.17-.14.27-.18h0s.02,0,.02,0h.01s0,0,0,0h.02s0,0,0,0h0s.02,0,.02,0h0s.01,0,.01,0h.01s0,0,0,0h.02s.02-.01.02-.01h.02s.02-.01.02-.01h.02s0,0,0,0h.02s.02,0,.02,0h0s.02,0,.02,0h0s.01,0,.01,0h.01s.01,0,.01,0h.01s.02,0,.02,0h0s.01,0,.01,0h.01s0,0,0,0h.03s.01,0,.01,0h0s.02,0,.02,0h.01s.01,0,.01,0h.01s.01,0,.01,0h0s.02,0,.02,0h0s.02,0,.02,0h.02s0,0,0,0h.02s0,0,0,0h.02s.02.01.02.01h.02s.02.01.02.01h0s.01,0,.01,0h.01s0,0,0,0h.02s0,0,0,0h0s.02,0,.02,0h0s.01,0,.01,0h.02s0,0,0,0c.1.05.19.11.27.18h0s.02.02.02.02h0s.01.02.01.02h0c.07.08.14.17.18.27h0s0,.02,0,.02h0s0,.02,0,.02v.02s0,0,0,0h0s0,0,0,0c.11.29,3.37,8.79,11.64,6.77,4.16-1.02,5.52-3.75,5.84-6.52.09-.78.1-1.57.06-2.32-.02-.43-.05-.84-.09-1.24-.04.06-.08.13-.13.19-.08.2-.16.41-.24.62-.26.63-.55,1.27-.89,1.89-.72,1.31-1.62,2.5-2.74,3.15-5.54,3.25-8.77-.73-10.49-3.65-.32-.54-.57-1.03-.78-1.42v-.03s0,.02-.15-.26c-.13-.24-.04-.54.2-.67.24-.13.54-.04.67.2.09.18.01.02.14.27v.03c.22.4.48.88.77,1.38,1.52,2.58,4.36,6.11,9.14,3.3.97-.57,1.77-1.64,2.42-2.85-.1.06-.19.12-.29.18-1.28.72-2.61.8-3.84.41-.22-.07-.43-.15-.64-.25-1.67-.77-2.68-2.07-3.67-3.34-1.54-1.99-3.01-3.87-7.48-1.97Z"/>
        <path class="cls-1" d="M62.17,43.84c.34,1.29.51,2.62.51,3.99,0,.71-.05,1.42-.14,2.11h.04c1.3,0,2.48-.53,3.34-1.38.85-.85,1.38-2.03,1.38-3.34s-.53-2.48-1.38-3.34c-.85-.85-2.03-1.38-3.34-1.38-.55,0-1.07.09-1.56.26.32.65.6,1.32.83,2.01,0,0,.01,0,.02-.01.34-.25.73-.39,1.12-.43.39-.04.79.02,1.15.17.69.28,1.26.88,1.47,1.75.06.27-.1.53-.36.6-.27.06-.53-.1-.6-.36-.13-.53-.48-.9-.89-1.07-.22-.09-.45-.12-.68-.1-.22.02-.44.1-.63.24-.1.07-.2.17-.28.28Z"/>
        <path class="cls-1" d="M19.52,47.84c0-1.37.18-2.71.51-3.99-.08-.11-.18-.2-.28-.28-.19-.14-.41-.22-.64-.24-.23-.02-.46.01-.68.1-.41.17-.76.54-.89,1.07-.06.27-.33.43-.6.36-.27-.06-.43-.33-.36-.6.21-.87.79-1.47,1.47-1.75.37-.15.76-.21,1.15-.17.4.04.78.18,1.12.43,0,0,0,0,.01.01.23-.69.51-1.36.83-2.01-.49-.17-1.01-.26-1.56-.26-1.3,0-2.48.53-3.34,1.38s-1.38,2.03-1.38,3.34.53,2.48,1.38,3.34,2.03,1.38,3.34,1.38h.04c-.09-.69-.14-1.4-.14-2.11Z"/>
        <path class="cls-1" d="M37.91,57.44c-2.23,1.9-5.44,3.27-9.84,2.19-.28-.07-.54-.14-.8-.22,3.55,2.95,8.43,4.77,13.83,4.77s10.29-1.82,13.83-4.77c-.26.08-.52.15-.8.22-4.41,1.08-7.62-.29-9.84-2.19-.83.79-1.95,1.28-3.19,1.28s-2.36-.49-3.19-1.28Z"/>
        <path class="cls-8" d="M25.91,60.85c-1.78-1.5-3.25-3.26-4.33-5.2,0,0,0,0-.01,0-1.46.76-2.79,1.76-3.96,2.92l1.49,2.6c1.33-.15,6.85,2.17,9.36,3.22.39.16.7.29.95.4.11.05.21.11.29.19,1.38.12,3.41.3,5.88.58-3.71-.83-7.03-2.48-9.68-4.71Z"/>
        <path class="cls-1" d="M26.54,65.74c-1.99-.83-4.77-1.96-6.23-2.42l.77,1.35c.14.07.27.16.37.3.33.43.24,1.05-.19,1.38-.89.68-1.31,1.34-1.4,1.97-.08.56.08,1.14.39,1.7,1.01-.2,2.32-.46,3.52-.69.41-.08.81-.16,1.18-.23l1.59-3.36Z"/>
        <path class="cls-8" d="M24.14,71.28c-2.11.41-4.54.88-4.92.99-.52.16-1.07-.13-1.24-.65-.12-.4.02-.81.32-1.06-.36-.8-.53-1.64-.41-2.52.13-.87.54-1.74,1.36-2.57l-3.06-5.35c-1.3,1.62-2.33,3.47-3.02,5.42-1.41,3.96-1.42,8.33.51,12.02,1.92,3.66,5.56,6.01,10.03,7.04,4.8,1.11,10.54.7,16.16-1.21,7.3-2.47,12.48-6.52,15.17-8.99l-3.36-7.32c-5.45.55-17.16,1.85-24.36,3.57-.19.04-.64.14-1.25.26-.18.1-.4.15-.61.12-.41.08-.87.17-1.34.26Z"/>
        <path class="cls-8" d="M27.38,68.6c1.93-.44,4.16-.86,6.48-1.24-2.68-.28-4.68-.44-5.65-.52l-.83,1.76Z"/>
        <path class="cls-8" d="M56.29,60.85c-2.85,2.4-6.49,4.13-10.55,4.89,4.63-.54,8.19-.86,8.71-.91.11-.02.22-.01.33,0,.03-.02.06-.03.09-.04l6.56-2.66s.05-.02.07-.03l3.84-1.37.48-.83c-1.44-1.74-3.19-3.21-5.17-4.25,0,0,0,0-.01,0-1.08,1.95-2.55,3.7-4.33,5.2Z"/>
        <path class="cls-1" d="M62.16,63.97l-6.16,2.5,2.84,6.01c.05.11.08.23.09.34,2.04.27,3.59-.04,4.63-.68.59-.36,1-.83,1.24-1.35.23-.51.28-1.09.16-1.68-.18-.85-.72-1.73-1.64-2.52-.05-.02-.1-.04-.15-.07-.2-.12-.35-.29-.43-.49-.18-.33-.16-.75.08-1.07.06-.08.14-.15.22-.21l.79-1.38-1.66.59Z"/>
        <path class="cls-8" d="M56.77,72.73l-2.77-5.87c-.32.03-.74.07-1.25.12l3.08,6.71c.4-.39.71-.72.94-.96Z"/>
        <path class="cls-8" d="M58.55,74.77c-.26-.04-.49-.17-.64-.37-.32.33-.74.75-1.25,1.23-.01.17-.12.34-.29.42-.07.03-.14.05-.21.04-2.43,2.19-6.56,5.38-12.15,7.83,5.07,1.45,10.15,1.68,14.47.68,4.47-1.03,8.1-3.37,10.02-7.04,1.94-3.7,1.93-8.06.51-12.02-.48-1.36-1.13-2.67-1.92-3.89l-2.14,3.76c1.07,1.02,1.71,2.16,1.95,3.3.21,1,.11,1.99-.29,2.89-.39.88-1.07,1.65-2,2.23-1.42.88-3.47,1.3-6.05.94Z"/>
        <path class="cls-7" d="M74.79,47.12c.28.17.59.22.9.15.35-.07.72-.29,1.05-.64.17-.18.34-.4.49-.65l1.44-2.42c.11-.19.17-.27.22-.37.31-.49.65-1.04.66-1.45,0-.28-.05-.57-.19-.83-.12-.23-.29-.44-.51-.58-.05-.03-.09-.06-.14-.08-.46-.25-.87-.21-1.23-.02-.47.25-.89.75-1.24,1.29-.09.15-.18.3-.26.45l-1.68,3.11c-.18.34-.24.69-.2,1,.04.32.18.61.39.81h0c.09.09.19.16.29.22Z"/>
        <path class="cls-7" d="M58.47,78.66c-1.96.45-4.07.65-6.27.6-2.21,1.58-4.96,3.25-8.2,4.67,5.07,1.45,10.15,1.68,14.47.68,4.47-1.03,8.1-3.37,10.02-7.04,1.52-2.9,1.84-6.2,1.23-9.4-.25,1.19-.65,2.35-1.23,3.46-1.92,3.66-5.56,6.01-10.02,7.04Z"/>
        <path class="cls-7" d="M39.9,83.39c7.3-2.47,12.48-6.52,15.17-8.99l-1.96-4.26c-2.94,2.37-7.41,5.34-13.22,7.31-5.63,1.91-11.36,2.32-16.16,1.21-4.47-1.03-8.1-3.37-10.03-7.04-.58-1.1-.98-2.27-1.23-3.46-.61,3.2-.29,6.51,1.23,9.4,1.92,3.66,5.56,6.01,10.03,7.04,4.8,1.11,10.54.7,16.16-1.21Z"/>
        <path class="cls-7" d="M53.9,69.49l1.93,4.2c.4-.39.71-.72.94-.96l-1.92-4.07c-.29.26-.6.54-.95.83Z"/>
        <path class="cls-5" d="M18.44,43.42c-.41.17-.76.54-.89,1.07-.03.1-.08.19-.15.26-.1.6.06,1.26.49,1.9.48.71,1.14,1.04,1.64,1.18,0-1.37.18-2.7.51-3.99-.08-.11-.18-.2-.28-.28-.19-.14-.41-.22-.64-.24-.23-.02-.46.01-.68.1Z"/>
        <path class="cls-5" d="M63.76,43.42c.41.17.76.54.89,1.07.02.1.08.19.15.26.1.6-.06,1.26-.49,1.9-.48.71-1.14,1.04-1.64,1.18,0-1.37-.18-2.7-.51-3.99.08-.11.18-.2.28-.28.19-.14.41-.22.63-.24.23-.02.46.01.68.1Z"/>
        <path class="cls-5" d="M27.18,37.87c3.55-2.99,8.47-4.84,13.92-4.84s10.37,1.85,13.92,4.84c1,.84,1.89,1.77,2.65,2.78.23.3.45.61.65.93.17.26.33.53.49.8.18.31.34.62.49.94.12-.17.3-.3.5-.37-.15-.39-.31-.77-.49-1.15-.29-.61-.62-1.2-.99-1.77-.89-1.36-2-2.61-3.3-3.7-3.55-2.99-8.47-4.84-13.92-4.84s-10.37,1.85-13.92,4.84c-1.3,1.09-2.41,2.34-3.3,3.7-.37.57-.7,1.16-.99,1.77-.18.38-.34.76-.49,1.15.2.07.38.19.5.37.15-.32.32-.63.49-.94.15-.27.32-.54.49-.8.21-.31.42-.62.65-.93.76-1.01,1.65-1.94,2.65-2.78Z"/>
      </g>
    </g>
  </g>
</svg>